<svg width="1342" height="341" viewBox="0 0 1342 341" fill="none" xmlns="http://www.w3.org/2000/svg">
<path d="M144.553 0C230.748 0 289.107 58.3586 289.107 150.658V333.242H221.225V150.658C221.225 97.7323 190.703 65.1345 144.553 65.1345C98.4038 65.1345 67.8815 97.7323 67.8815 150.658V333.242H0V150.658C0 58.3586 58.3586 0 144.553 0Z" fill="white"/>
<path d="M333.302 170.375C333.302 74.6574 403.198 0 505.02 0C606.842 0 676.738 74.6574 676.738 170.375C676.738 266.093 606.842 340.75 505.02 340.75C403.198 340.75 333.302 266.765 333.302 170.375ZM505.02 274.883C568.14 274.883 607.514 226.719 607.514 170.375C607.514 114.031 568.14 65.1955 505.02 65.1955C441.9 65.1955 401.855 114.031 401.855 170.375C401.855 226.719 441.9 274.883 505.02 274.883Z" fill="white"/>
<path d="M851.207 333.974H830.146L671.309 7.44739H745.295L842.355 219.211L940.149 7.44739H1011.39" fill="white"/>
<path d="M1008.03 164.942C1008.03 67.21 1080.67 0 1174.98 0C1269.3 0 1341.27 65.1345 1341.27 171.047V333.242H1273.39V173.061C1273.39 103.165 1230.65 65.1345 1174.31 65.1345C1117.97 65.1345 1076.58 105.18 1076.58 164.21C1076.58 223.24 1115.28 268.718 1189.27 268.718H1231.33L1211 333.181H1184.51C1077.25 333.181 1008.03 259.195 1008.03 164.82V164.942Z" fill="white"/>
<path d="M593.354 170.681C557.704 150.536 528.159 121.296 505.023 82.3492C481.887 121.296 452.341 150.536 416.691 170.681C452.341 190.825 481.887 220.066 505.023 259.012C528.159 220.066 557.704 190.825 593.354 170.681Z" fill="white"/>
</svg>
